<svg width="40" height="40" viewBox="0 0 40 40" fill="none" xmlns="http://www.w3.org/2000/svg">
<rect width="40" height="40" rx="8" fill="#4680C2"/>
<path d="M21.4885 30C10.1002 30 3.60516 22.4917 3.3335 10H9.0385C9.22516 19.17 13.4318 23.0533 16.7618 23.8533V10H22.1335V17.9083C25.4235 17.5683 28.8802 13.9633 30.0468 10H35.4185C34.9742 12.0659 34.097 14.0143 32.8452 15.7167C31.5752 17.444 29.9633 18.8918 28.1102 19.97C30.1787 20.9547 32.0173 22.3628 33.5068 24.1033C34.974 25.8173 36.052 27.8292 36.6668 30H30.7535C30.1973 28.109 29.0867 26.4282 27.5652 25.175C26.0145 23.8965 24.1292 23.0905 22.1335 22.8533V30H21.4885Z" fill="white"/>
</svg>
