<svg width="40" height="40" viewBox="0 0 40 40" fill="none" xmlns="http://www.w3.org/2000/svg">
<g clip-path="url(#clip0_125_5047)">
<rect width="40" height="40" rx="8" fill="white"/>
<path d="M0.853809 19.7608C0.852871 23.1216 1.73787 26.4031 3.42068 29.2955L0.692871 39.178L10.8854 36.5262C13.7045 38.0491 16.8631 38.847 20.0729 38.8472H20.0813C30.6774 38.8472 39.3029 30.2917 39.3074 19.7759C39.3094 14.6802 37.3113 9.88857 33.681 6.28361C30.0513 2.67896 25.224 0.692755 20.0805 0.69043C9.48319 0.69043 0.85834 9.24547 0.853965 19.7608" fill="url(#paint0_linear_125_5047)"/>
<path d="M15.1061 11.496C14.7332 10.6738 14.3409 10.6573 13.9864 10.6428C13.6961 10.6304 13.3642 10.6314 13.0326 10.6314C12.7007 10.6314 12.1615 10.7552 11.7057 11.249C11.2495 11.7433 9.96387 12.9377 9.96387 15.367C9.96387 17.7965 11.7471 20.1442 11.9957 20.474C12.2446 20.8031 15.4384 25.948 20.4965 27.9272C24.7003 29.572 25.5557 29.2449 26.4681 29.1624C27.3806 29.0802 29.4125 27.9683 29.827 26.8152C30.2418 25.6624 30.2418 24.6742 30.1175 24.4676C29.9931 24.2619 29.6612 24.1383 29.1636 23.8915C28.6657 23.6445 26.2192 22.45 25.7631 22.2852C25.3068 22.1205 24.9751 22.0383 24.6432 22.5328C24.3114 23.0264 23.3584 24.1383 23.0679 24.4676C22.7778 24.7977 22.4873 24.8388 21.9898 24.5918C21.4918 24.3441 19.8892 23.8233 17.9878 22.1413C16.5084 20.8324 15.5096 19.2162 15.2193 18.7218C14.929 18.2281 15.1882 17.9605 15.4378 17.7145C15.6614 17.4932 15.9356 17.1379 16.1846 16.8497C16.4328 16.5613 16.5156 16.3555 16.6815 16.0262C16.8476 15.6966 16.7645 15.4083 16.6403 15.1613C16.5156 14.9143 15.5486 12.4723 15.1061 11.496Z" fill="white"/>
</g>
<defs>
<linearGradient id="paint0_linear_125_5047" x1="1931.42" y1="3849.45" x2="1931.42" y2="0.69043" gradientUnits="userSpaceOnUse">
<stop stop-color="#1FAF38"/>
<stop offset="1" stop-color="#60D669"/>
</linearGradient>
<clipPath id="clip0_125_5047">
<rect width="40" height="40" rx="8" fill="white"/>
</clipPath>
</defs>
</svg>
